<?xml version="1.0" standalone="no"?>
<!DOCTYPE svg PUBLIC "-//W3C//DTD SVG 20010904//EN"
 "http://www.w3.org/TR/2001/REC-SVG-20010904/DTD/svg10.dtd">
<svg version="1.0" xmlns="http://www.w3.org/2000/svg"
 width="1024.000000pt" height="1024.000000pt" viewBox="0 0 1024.000000 1024.000000"
 preserveAspectRatio="xMidYMid meet">
<metadata>
Created by potrace 1.16, written by Peter Selinger 2001-2019
</metadata>
<g transform="translate(0.000000,1024.000000) scale(0.100000,-0.100000)"
fill="#000000" stroke="none">
<path d="M4368 8897 c-7 -7 -21 -16 -30 -20 -10 -3 -18 -12 -18 -19 0 -12 -54
-43 -75 -43 -5 0 -18 -10 -28 -22 -10 -12 -36 -32 -57 -44 -22 -13 -40 -28
-40 -34 0 -12 -42 -35 -63 -35 -7 0 -18 -9 -25 -20 -7 -11 -17 -20 -23 -20 -5
0 -24 -11 -42 -26 -18 -14 -34 -24 -37 -23 -11 5 -50 -23 -45 -31 3 -5 -13
-21 -36 -35 -23 -15 -43 -35 -46 -45 -3 -12 -12 -17 -24 -15 -12 2 -19 -2 -19
-11 0 -8 -6 -14 -13 -14 -7 0 -20 -8 -29 -19 -8 -10 -20 -20 -24 -22 -19 -8
-54 -69 -54 -94 0 -23 -4 -25 -40 -25 -33 0 -40 -3 -40 -20 0 -10 -9 -24 -20
-30 -11 -6 -20 -20 -20 -31 0 -11 -4 -25 -10 -32 -49 -61 -61 -78 -56 -85 2
-4 0 -14 -6 -22 -8 -12 -9 -12 -4 3 3 9 1 17 -4 17 -5 0 -16 -21 -24 -47 -8
-27 -15 -45 -15 -40 -1 4 -9 -1 -19 -10 -11 -10 -17 -21 -15 -25 2 -5 -1 -8
-8 -8 -10 0 -10 -3 -1 -12 9 -9 19 -5 42 17 16 15 27 32 24 37 -3 4 -1 8 4 8
14 0 63 81 55 92 -3 6 -1 8 4 5 6 -4 21 8 33 26 16 23 39 39 74 51 64 22 126
64 195 133 29 29 56 53 60 53 4 0 38 30 77 68 339 327 476 457 484 460 6 2 10
8 10 13 0 14 -37 11 -52 -4z"/>
<path d="M910 8129 c-118 -50 -231 -98 -250 -107 -19 -9 -37 -17 -40 -17 -11
-2 -55 -29 -68 -42 -7 -7 -20 -13 -28 -13 -8 0 -14 -4 -14 -10 0 -6 -3 -9 -7
-8 -13 3 -93 -42 -93 -52 0 -6 -11 -10 -25 -10 -14 0 -25 -4 -25 -8 0 -5 -26
-26 -58 -48 -31 -21 -59 -42 -60 -46 -2 -5 -9 -8 -16 -8 -7 0 -45 -33 -86 -72
-98 -97 -110 -111 -110 -129 0 -8 -7 -24 -15 -35 -11 -14 -14 -51 -14 -159
l-1 -140 28 47 c20 36 77 89 232 216 113 92 318 260 455 372 138 113 280 229
317 258 73 57 133 88 143 72 3 -6 16 -10 28 -9 19 1 18 2 -8 14 -60 26 -68 24
-285 -66z"/>
<path d="M5830 7039 c-63 -4 -142 -15 -175 -23 -135 -33 -225 -51 -386 -75
-30 -5 -82 -16 -115 -24 -119 -30 -201 -47 -269 -57 -62 -9 -216 -32 -385 -59
-30 -5 -75 -14 -100 -19 -25 -6 -79 -16 -120 -23 -41 -6 -102 -20 -135 -31
-33 -10 -109 -26 -170 -33 -60 -8 -175 -26 -255 -40 -80 -14 -170 -28 -200
-30 -115 -9 -356 -65 -418 -97 -12 -6 -25 -21 -28 -33 -7 -28 31 -255 51 -301
8 -20 15 -47 15 -60 0 -12 14 -76 31 -141 17 -65 35 -136 40 -158 6 -22 16
-58 24 -80 22 -66 100 -379 140 -569 9 -43 32 -132 51 -198 19 -66 34 -126 34
-134 0 -8 16 -48 35 -88 19 -41 35 -79 35 -84 0 -6 12 -24 26 -41 29 -35 56
-39 112 -15 54 23 129 42 292 74 147 28 204 41 365 85 50 14 143 36 209 50 65
14 122 27 126 30 17 10 18 -11 5 -95 -23 -146 -24 -151 -62 -166 -36 -15 -119
-35 -247 -59 -89 -16 -149 -44 -154 -69 -2 -9 3 -28 12 -41 18 -27 134 -124
209 -173 27 -18 71 -56 98 -84 l49 -51 50 7 c28 4 81 18 118 31 37 13 126 36
197 49 72 14 153 32 180 40 28 8 66 19 85 24 68 20 245 85 258 94 14 12 16 52
2 77 -5 10 -49 46 -97 80 -48 34 -108 77 -133 96 -25 19 -63 46 -85 59 l-40
24 -75 -19 c-41 -10 -79 -19 -84 -19 -8 0 -3 107 11 227 5 48 8 52 37 58 17 4
83 22 146 42 63 19 138 41 165 49 123 34 234 63 285 74 63 13 126 30 260 71
139 41 283 79 380 98 115 23 130 32 130 79 0 31 -9 100 -24 187 -2 11 -22 135
-45 275 -22 140 -43 266 -46 280 -3 14 -7 41 -9 60 -2 19 -13 80 -25 135 -32
147 -51 255 -51 300 0 46 -33 152 -84 275 -20 47 -36 97 -36 111 0 53 -35 61
-210 48z m168 -114 c7 -27 31 -107 53 -176 39 -126 71 -283 109 -539 11 -74
24 -155 29 -180 6 -25 17 -101 26 -170 20 -153 33 -237 51 -315 7 -33 16 -85
20 -116 l6 -57 -63 -20 c-63 -21 -150 -46 -364 -104 -122 -33 -167 -45 -430
-113 -99 -25 -245 -66 -325 -91 -304 -94 -341 -104 -535 -146 -27 -6 -79 -19
-115 -29 -125 -34 -395 -95 -572 -129 -59 -11 -122 -27 -140 -34 -18 -8 -51
-16 -73 -18 l-39 -3 -13 50 c-8 28 -27 93 -43 145 -17 52 -59 213 -95 358 -36
144 -72 279 -80 300 -12 33 -33 130 -64 307 -6 33 -22 103 -37 155 -14 52 -30
111 -34 130 -4 19 -24 98 -44 174 -20 77 -35 145 -32 152 3 7 19 15 36 19 18
4 56 18 86 31 30 13 98 30 151 39 54 8 157 24 228 36 72 11 175 25 230 30 87
8 151 22 270 59 17 5 59 14 95 20 105 18 301 51 350 60 25 4 104 17 175 29 72
12 144 23 160 26 17 3 57 11 90 16 33 6 80 17 105 24 25 8 65 17 90 20 61 9
269 50 355 70 93 22 258 43 320 41 l49 -1 14 -50z m-2802 -670 c9 -38 30 -122
46 -185 56 -214 86 -373 57 -300 -18 43 -80 273 -89 327 -4 29 -17 81 -29 115
-17 52 -43 202 -40 226 1 12 38 -109 55 -183z m1694 -1457 c-6 -51 -14 -123
-17 -160 l-6 -68 -41 -11 c-22 -5 -57 -14 -76 -20 -59 -15 -58 -17 -43 79 8
48 16 125 19 172 3 47 8 88 12 92 4 4 41 15 82 26 90 22 87 27 70 -110z m389
-254 c78 -55 141 -104 141 -110 0 -13 -178 -79 -280 -104 -41 -10 -145 -31
-230 -45 -179 -30 -300 -54 -311 -60 -4 -3 -53 34 -109 81 -56 47 -127 103
-157 125 -33 23 -50 40 -42 43 59 17 310 76 323 76 13 0 16 -8 14 -36 -5 -55
15 -62 96 -36 37 12 75 22 85 22 11 0 39 9 64 19 38 16 45 25 51 55 5 28 12
36 29 36 12 1 51 9 87 20 36 10 73 17 82 15 9 -1 80 -47 157 -101z"/>
<path d="M5840 6945 c-36 -7 -83 -20 -105 -28 -44 -17 -119 -32 -205 -42 -58
-6 -112 -18 -300 -65 -63 -15 -137 -31 -165 -35 -27 -4 -104 -19 -170 -35
-245 -57 -422 -94 -530 -110 -33 -5 -91 -16 -130 -24 -38 -8 -95 -17 -125 -20
-30 -4 -82 -11 -115 -16 -33 -6 -132 -21 -220 -35 -336 -52 -511 -90 -520
-113 -6 -15 14 -93 50 -192 13 -36 25 -81 28 -100 3 -20 23 -83 46 -140 28
-74 45 -137 55 -215 9 -60 20 -126 26 -145 6 -19 22 -89 36 -155 14 -66 39
-183 56 -260 16 -77 36 -169 43 -205 13 -69 48 -184 71 -237 12 -28 19 -33 48
-33 19 0 58 9 88 19 29 11 87 25 128 31 41 7 98 18 125 25 166 42 339 88 395
106 92 28 112 34 230 64 58 15 146 40 195 55 50 15 122 37 160 48 39 11 99 30
135 41 109 33 296 79 455 110 221 45 343 76 447 117 51 20 107 38 125 41 18 3
40 14 49 25 17 17 17 21 2 46 -15 26 -45 164 -67 317 -6 39 -17 102 -26 140
-33 144 -67 353 -75 456 -5 74 -15 124 -33 170 -26 65 -50 147 -87 299 -20 79
-34 111 -49 109 -3 0 -35 -7 -71 -14z m65 -97 c6 -51 31 -141 82 -297 13 -41
31 -131 39 -200 8 -69 16 -133 19 -141 3 -8 16 -82 31 -165 14 -82 30 -170 35
-195 5 -25 13 -81 19 -125 6 -44 20 -117 30 -161 11 -45 20 -88 20 -95 0 -8
-21 -22 -48 -32 -26 -11 -67 -27 -92 -37 -62 -25 -213 -63 -415 -105 -294 -61
-327 -70 -790 -207 -121 -36 -200 -58 -370 -103 -201 -53 -304 -82 -372 -103
-34 -11 -64 -18 -66 -16 -2 3 -64 -10 -138 -27 -74 -17 -143 -33 -154 -35 -17
-4 -23 5 -43 68 -12 40 -33 120 -47 178 -13 58 -42 182 -64 275 -22 94 -52
217 -65 275 -14 58 -33 150 -41 205 -9 55 -42 183 -75 285 -57 182 -90 292
-90 304 0 3 10 6 22 6 12 0 35 4 52 9 17 6 81 17 141 27 61 9 128 21 150 26
22 6 108 21 190 34 245 38 363 60 700 128 495 102 742 153 843 175 51 11 132
25 180 32 48 6 119 22 157 35 66 22 98 29 137 33 12 1 18 -11 23 -51z"/>
<path d="M5454 6582 c-75 -59 -378 -481 -559 -777 -37 -60 -82 -132 -100 -160
-18 -27 -42 -69 -54 -92 -11 -23 -25 -45 -31 -48 -10 -6 -190 -358 -190 -370
0 -16 26 15 97 116 43 61 87 124 98 139 70 98 126 184 141 212 9 18 34 54 55
79 22 26 58 80 82 120 67 116 118 195 171 267 26 37 51 74 54 82 3 8 26 44 52
80 115 161 220 332 220 360 0 14 -12 12 -36 -8z"/>
<path d="M4594 6433 c-192 -212 -363 -431 -459 -587 -11 -18 -31 -46 -44 -62
-24 -30 -94 -140 -166 -259 -22 -37 -50 -79 -61 -94 -24 -29 -84 -151 -84
-169 0 -25 29 -10 66 32 50 56 196 262 291 409 21 32 54 79 73 105 19 26 40
54 45 64 30 48 77 118 137 201 37 50 91 125 120 165 29 39 81 109 116 154 60
78 76 118 49 118 -7 0 -45 -35 -83 -77z"/>
<path d="M4099 6198 c-143 -159 -308 -372 -297 -384 13 -12 388 433 388 460 0
18 -25 -3 -91 -76z"/>
<path d="M5612 6142 c-104 -131 -153 -203 -285 -422 -104 -173 -161 -280 -149
-280 20 0 113 113 177 216 11 18 41 63 66 101 66 98 119 182 119 187 0 8 91
157 112 185 44 58 6 70 -40 13z"/>
<path d="M5753 5888 c-81 -87 -169 -224 -161 -250 4 -12 136 127 178 188 58
83 46 128 -17 62z"/>
<path d="M9003 5028 c-294 -449 -287 -438 -279 -438 9 0 155 127 206 179 25
25 55 62 67 81 31 50 286 590 279 590 -2 0 -125 -186 -273 -412z"/>
<path d="M6435 4656 c-22 -8 -76 -30 -120 -51 -44 -20 -121 -52 -170 -70 -178
-64 -325 -161 -325 -213 0 -10 16 -34 36 -53 19 -18 54 -59 77 -89 23 -30 69
-86 102 -125 34 -38 72 -86 86 -105 23 -35 43 -59 107 -131 58 -66 118 -99
178 -99 29 0 55 4 58 9 3 5 29 16 57 25 68 23 389 176 534 256 153 84 154 140
2 308 -101 110 -142 147 -202 177 -54 28 -115 66 -215 133 -54 36 -70 42 -114
41 -28 0 -69 -6 -91 -13z m116 -36 c4 0 46 -29 92 -64 46 -35 104 -75 129 -89
83 -46 142 -95 212 -173 81 -92 120 -149 112 -163 -6 -8 -276 -145 -446 -225
-56 -26 -112 -57 -174 -96 -31 -18 -40 -20 -75 -10 -44 12 -143 95 -166 141
-8 15 -72 86 -142 159 -71 72 -134 144 -142 158 -7 15 -24 39 -38 53 -21 23
-22 27 -8 39 48 40 311 170 343 170 6 0 41 14 79 31 99 46 186 77 201 73 8 -2
18 -4 23 -4z"/>
<path d="M6330 4480 c-75 -38 -110 -77 -112 -123 -1 -20 5 -43 12 -52 36 -43
213 -125 272 -125 10 0 33 -7 51 -16 45 -24 133 -23 180 0 46 23 87 80 87 121
0 44 -39 114 -82 148 -26 21 -65 36 -135 53 -135 32 -203 31 -273 -6z m310
-57 c82 -31 120 -70 120 -121 -1 -91 -90 -124 -205 -76 -19 8 -44 14 -55 14
-11 0 -70 21 -130 46 -96 40 -110 49 -110 70 0 14 10 30 26 40 24 16 30 16
100 -2 61 -15 79 -16 95 -6 12 8 33 10 54 6 47 -8 46 12 0 32 -19 8 -35 18
-35 24 0 13 67 1 140 -27z"/>
<path d="M5650 4185 c-36 -7 -103 -21 -150 -33 -47 -11 -148 -26 -225 -32 -77
-6 -185 -16 -240 -21 -108 -9 -386 -51 -500 -75 -63 -13 -221 -35 -345 -50
-25 -3 -76 -11 -115 -19 -38 -7 -106 -19 -150 -25 -44 -6 -100 -15 -125 -20
-25 -5 -101 -17 -170 -26 -198 -25 -266 -65 -240 -143 8 -26 9 -44 1 -64 -6
-16 -11 -42 -11 -58 0 -26 3 -30 23 -27 12 2 26 13 32 25 8 20 12 18 51 -36
49 -67 130 -208 175 -304 16 -36 36 -70 43 -76 9 -8 33 -6 82 4 38 8 103 17
144 20 41 2 86 7 100 9 14 3 64 10 111 16 48 6 100 15 116 20 16 6 74 17 129
24 54 8 158 25 229 39 72 15 258 47 415 72 157 26 313 53 348 61 77 18 364 54
375 47 4 -2 30 3 59 13 28 9 62 16 77 16 14 0 35 7 46 14 11 8 30 14 42 14 42
0 44 29 9 131 -18 52 -38 104 -44 116 -7 12 -12 30 -12 41 0 11 -6 25 -13 31
-8 6 -19 30 -26 53 -18 62 -108 225 -134 243 -24 17 -20 17 -107 0z m-228
-450 c37 -62 37 -62 -10 -71 -29 -6 -33 -4 -43 25 -9 27 -16 31 -45 31 -19 0
-51 -7 -70 -15 -28 -12 -35 -19 -29 -32 4 -10 9 -24 12 -30 3 -7 -1 -13 -8
-13 -8 0 -24 -3 -36 -6 -18 -5 -26 2 -48 46 -31 61 -26 69 40 70 22 1 69 7
105 14 90 19 110 16 132 -19z m-682 -260 c18 -54 35 -47 -225 -91 -49 -8 -132
-24 -183 -35 -51 -12 -95 -19 -96 -17 -2 1 -13 22 -25 45 l-21 42 33 10 c17 5
95 19 172 31 77 12 174 27 215 35 116 20 117 20 130 -20z"/>
<path d="M6012 3483 l-113 -45 -20 21 c-11 12 -32 21 -47 22 -106 3 -133 -1
-202 -26 -121 -44 -525 -217 -528 -226 -2 -5 -11 -9 -20 -9 -9 0 -42 -12 -72
-27 -30 -14 -58 -26 -62 -25 -5 1 -8 -2 -8 -6 0 -4 -20 -14 -45 -21 -25 -7
-47 -17 -50 -21 -8 -13 62 6 105 29 50 26 50 26 50 1 0 -11 7 -20 15 -20 8 0
15 4 15 9 0 6 15 5 37 -1 25 -7 43 -6 57 1 12 6 82 12 156 14 174 5 300 23
321 48 9 10 38 23 65 29 57 13 114 39 114 51 0 5 11 14 25 19 14 5 25 16 25
25 0 8 4 15 8 15 5 0 16 17 26 38 17 33 19 35 26 17 5 -11 13 -47 20 -80 14
-71 50 -154 50 -117 0 13 23 53 50 90 28 36 50 72 50 79 0 6 8 18 19 25 26 19
64 95 50 103 -6 4 -8 13 -5 21 3 8 4 14 3 13 -1 -1 -53 -21 -115 -46z"/>
</g>
</svg>
